<?xml version="1.0" encoding="iso-8859-1"?>
<!-- Generator: Adobe Illustrator 19.0.0, SVG Export Plug-In . SVG Version: 6.00 Build 0)  -->
<svg version="1.1" id="Layer_1" xmlns="http://www.w3.org/2000/svg" xmlns:xlink="http://www.w3.org/1999/xlink" x="0px" y="0px"
	 viewBox="0 0 512 512" style="enable-background:new 0 0 512 512;" xml:space="preserve">
<path style="fill:#DF5F4E;" d="M237.73,455.745c-2.242-1.089-55.511-27.162-109.299-69.081
	C50.144,325.652,10.449,262.713,10.449,199.597c0-86.598,65.847-157.05,146.785-157.05c37.334,0,72.308,15.179,98.766,40.881
	c26.458-25.701,61.432-40.881,98.766-40.881c80.938,0,146.785,70.452,146.785,157.05c0,63.116-39.695,126.054-117.982,187.066
	c-53.788,41.919-107.057,67.992-109.299,69.081L256,464.625L237.73,455.745z"/>
<path style="fill:#ECF0F1;" d="M354.767,84.343c-45.457,0-84.163,31.717-98.767,76.091c-14.603-44.374-53.309-76.091-98.767-76.091
	c-57.983,0-104.988,51.601-104.988,115.254C52.245,319.121,256,418.155,256,418.155s203.755-99.033,203.755-218.557
	C459.755,135.944,412.75,84.343,354.767,84.343z"/>
<circle style="fill:#3EBD91;" cx="358.578" cy="341.117" r="128.334"/>
<g>
	<path style="fill:#231F20;" d="M430.918,300.891l-82.648,82.648l-41.907-41.908c-4.08-4.078-10.695-4.079-14.778,0
		c-4.08,4.08-4.08,10.697,0,14.778l49.296,49.297c1.96,1.959,4.617,3.06,7.388,3.06c2.771,0,5.428-1.101,7.388-3.06l90.037-90.037
		c4.08-4.08,4.08-10.697,0-14.778C441.615,296.812,435,296.812,430.918,300.891z"/>
	<path style="fill:#231F20;" d="M512,199.597c0-92.361-70.535-167.5-157.234-167.5c-36.085,0-70.799,13.133-98.766,37.18
		c-27.968-24.046-62.681-37.18-98.766-37.18C70.535,32.097,0,107.237,0,199.597c0,66.504,41.05,132.213,122.008,195.308
		c54.686,42.619,108.825,69.105,111.153,70.237l18.27,8.882c1.442,0.701,3.005,1.051,4.568,1.051c1.563,0,3.126-0.35,4.568-1.051
		l18.266-8.881c0.52-0.253,3.758-1.836,9.078-4.626c20.712,12.306,44.877,19.385,70.667,19.385
		c76.523,0,138.78-62.257,138.78-138.781c0-18.502-3.649-36.165-10.249-52.32C503.662,259.337,512,229.548,512,199.597z M256,452.92
		l-13.702-6.749c-0.001,0-0.002,0-0.003,0c-2.198-1.045-54.444-26.533-107.441-67.837C59.238,319.404,20.898,259.208,20.898,199.479
		c0-80.836,61.16-146.543,136.336-146.543c33.818,0,66.308,13.501,91.486,37.959c4.055,3.939,10.506,3.956,14.562,0.017
		c25.178-24.458,57.667-37.915,91.486-37.915c75.174,0,136.334,65.778,136.334,146.615c0,22.142-5.298,44.35-15.785,66.531
		c-4.34-6.734-9.249-13.065-14.655-18.936c6.338-16.067,9.542-31.979,9.542-47.611c0-69.313-51.785-125.704-115.438-125.704
		c-40.807,0-78.132,23.572-98.766,60.596c-20.635-37.025-57.959-60.596-98.767-60.596C93.581,73.893,41.796,130.284,41.796,199.597
		c0,29.53,11.39,60.061,33.855,90.746c17.471,23.864,41.711,47.952,72.049,71.596c45.818,35.708,90.973,59.21,101.502,64.506
		c5.827,7.453,12.401,14.175,19.602,20.298L256,452.92z M444.04,231.847c-23.575-18.478-53.252-29.508-85.459-29.508
		c-76.524,0-138.782,62.257-138.782,138.78c0,17.83,3.383,34.885,9.536,50.559c-55.762-32.617-166.64-108.051-166.64-192.081
		c0-57.791,42.41-104.806,94.539-104.806c39.576,0,75.278,27.693,88.841,68.909c1.411,4.286,5.414,7.183,9.925,7.183
		c4.512,0,8.515-2.896,9.925-7.183c13.563-41.216,49.266-68.909,88.84-68.909c52.13,0,94.54,47.015,94.54,104.806
		C449.306,210.517,447.427,221.292,444.04,231.847z M358.581,459.005c-65.002,0-117.884-52.882-117.884-117.883
		s52.882-117.882,117.884-117.882c65.001,0,117.882,52.881,117.882,117.882S423.582,459.005,358.581,459.005z"/>
</g>
<g>
</g>
<g>
</g>
<g>
</g>
<g>
</g>
<g>
</g>
<g>
</g>
<g>
</g>
<g>
</g>
<g>
</g>
<g>
</g>
<g>
</g>
<g>
</g>
<g>
</g>
<g>
</g>
<g>
</g>
</svg>
