<?xml version="1.0" encoding="iso-8859-1"?>
<!-- Generator: Adobe Illustrator 19.0.0, SVG Export Plug-In . SVG Version: 6.00 Build 0)  -->
<svg version="1.1" id="Layer_1" xmlns="http://www.w3.org/2000/svg" xmlns:xlink="http://www.w3.org/1999/xlink" x="0px" y="0px"
	 viewBox="0 0 512 512" style="enable-background:new 0 0 512 512;" xml:space="preserve">
<path style="fill:#DF5F4E;" d="M237.73,458.158c-2.242-1.089-55.511-27.162-109.299-69.081
	C50.144,328.066,10.449,265.127,10.449,202.011c0-86.598,65.847-157.05,146.785-157.05c37.334,0,72.308,15.179,98.766,40.881
	c26.458-25.701,61.432-40.881,98.766-40.881c80.938,0,146.785,70.452,146.785,157.05c0,63.116-39.695,126.054-117.982,187.066
	c-53.788,41.919-107.057,67.992-109.299,69.081L256,467.039L237.73,458.158z"/>
<path style="fill:#ECF0F1;" d="M354.767,86.757c-45.457,0-84.163,31.717-98.767,76.091c-14.603-44.374-53.309-76.09-98.767-76.09
	c-57.983,0-104.988,51.601-104.988,115.254C52.245,321.535,256,420.568,256,420.568s203.755-99.033,203.755-218.557
	C459.755,138.358,412.75,86.757,354.767,86.757z"/>
<g>
	<path style="fill:#231F20;" d="M354.766,34.512c-36.085,0-70.798,13.133-98.766,37.18c-27.969-24.045-62.681-37.18-98.766-37.18
		C70.535,34.512,0,109.652,0,202.011c0,66.503,41.049,132.214,122.008,195.308c54.674,42.609,108.875,69.129,111.156,70.238
		l18.268,8.88c1.443,0.701,3.005,1.051,4.568,1.051c1.563,0,3.125-0.35,4.568-1.051l18.268-8.88
		c2.281-1.109,56.482-27.628,111.156-70.238C470.951,334.225,512,268.514,512,202.011C512,109.652,441.465,34.512,354.766,34.512z
		 M377.145,380.873c-52.959,41.273-105.242,66.892-107.444,67.962L256,455.694l-13.702-6.387c-0.001,0-0.001,0-0.002,0
		c-2.2-1.045-54.484-26.925-107.442-68.197C59.237,322.179,20.898,261.802,20.898,202.073c0-80.836,61.16-146.633,136.336-146.633
		c33.817,0,66.308,13.456,91.486,37.913c4.055,3.939,10.506,3.933,14.562-0.005c25.178-24.457,57.668-37.926,91.486-37.926
		c75.174,0,136.334,65.773,136.334,146.61C491.102,261.76,452.763,321.942,377.145,380.873z"/>
	<path style="fill:#231F20;" d="M354.766,76.308c-40.807,0-78.131,23.572-98.766,60.596c-20.635-37.024-57.959-60.596-98.766-60.596
		c-63.653,0-115.438,56.39-115.438,125.703c0,29.53,11.39,60.061,33.855,90.745c17.471,23.864,41.711,47.952,72.048,71.596
		c51.218,39.915,101.613,64.583,103.733,65.613c1.442,0.7,3.004,1.051,4.567,1.051c1.563,0,3.125-0.35,4.567-1.051
		c2.12-1.03,52.517-25.698,103.733-65.613c30.337-23.643,54.577-47.732,72.048-71.596c22.464-30.684,33.855-61.215,33.855-90.745
		C470.204,132.698,418.419,76.308,354.766,76.308z M256,408.85C226.326,393.47,62.694,303.994,62.694,202.011
		c0-57.79,42.41-104.805,94.54-104.805c39.574,0,75.277,27.692,88.84,68.908c1.411,4.286,5.414,7.183,9.925,7.183
		s8.515-2.896,9.925-7.183c13.564-41.216,49.266-68.908,88.84-68.908c52.13,0,94.54,47.016,94.54,104.805
		C449.306,303.994,285.673,393.47,256,408.85z"/>
</g>
<g>
</g>
<g>
</g>
<g>
</g>
<g>
</g>
<g>
</g>
<g>
</g>
<g>
</g>
<g>
</g>
<g>
</g>
<g>
</g>
<g>
</g>
<g>
</g>
<g>
</g>
<g>
</g>
<g>
</g>
</svg>
