<?xml version="1.0" encoding="iso-8859-1"?>
<!-- Generator: Adobe Illustrator 19.0.0, SVG Export Plug-In . SVG Version: 6.00 Build 0)  -->
<svg version="1.1" id="Layer_1" xmlns="http://www.w3.org/2000/svg" xmlns:xlink="http://www.w3.org/1999/xlink" x="0px" y="0px"
	 viewBox="0 0 512 512" style="enable-background:new 0 0 512 512;" xml:space="preserve">
<path style="fill:#2D2D2D;" d="M512,31.344c0-5.744-4.704-10.448-10.448-10.448H10.448C4.704,20.896,0,25.6,0,31.344v323.92h512
	V31.344z M491.104,334.368H20.896V41.792h470.2v292.576H491.104z"/>
<g>
	<path style="fill:#E8E8E8;" d="M512,397.064v-41.8H0v41.8c0,5.744,4.704,10.448,10.448,10.448h182.856h125.392h182.856
		C507.296,407.512,512,402.808,512,397.064z"/>
	<polygon style="fill:#E8E8E8;" points="146.28,480.656 146.28,491.104 365.712,491.104 365.712,480.656 329.144,480.656 
		182.856,480.656 	"/>
</g>
<polygon style="fill:#C9C9C9;" points="182.856,480.656 329.144,480.656 318.696,407.512 193.304,407.512 "/>
<g>
	<path style="fill:#8AD5DD;" d="M20.896,334.368h470.2V41.792h-470.2V334.368z M130.112,166.656
		c-0.304-2.944-0.456-5.92-0.456-8.944c0-47.976,38.888-86.864,86.864-86.864c21.12,0,40.432,7.56,55.464,20.104l102.232-20.664
		v95.504c35.192,1.96,63.408,31.272,63.408,66.936c0,36.92-30.208,67.12-67.12,67.12h-229c-36.92,0-67.12-30.208-67.12-67.12
		C74.376,199.696,98.584,172.112,130.112,166.656z"/>
	<path style="fill:#8AD5DD;" d="M341.768,133.672c7.36,4.48,13.448,10.744,17.76,18.216v-21.016L341.768,133.672z"/>
</g>
<path style="fill:#DB2B42;" d="M141.504,299.848h229c36.92,0,67.12-30.208,67.12-67.12c0-35.664-28.208-64.976-63.408-66.936v56.48
	h-0.256c0.128,1.08,0.256,2.28,0.256,3.416c0,16.968-17.28,30.704-38.616,30.704s-38.616-13.736-38.616-30.704
	s17.28-30.704,38.616-30.704c9.056,0,17.344,2.536,23.928,6.648V151.88c-4.312-7.472-10.4-13.736-17.76-18.216l-80.296,12.648
	v93.496c0,16.968-17.28,30.704-38.616,30.704s-38.616-13.736-38.616-30.704s17.28-30.704,38.616-30.704
	c9.624,0,18.36,2.784,25.128,7.408V95.792l23.992-4.848c-15.032-12.536-34.344-20.104-55.464-20.104
	c-47.976,0-86.864,38.888-86.864,86.864c0,3.024,0.16,6,0.456,8.944c-31.528,5.456-55.736,33.04-55.736,66.072
	C74.376,269.648,104.584,299.848,141.504,299.848z"/>
<path style="fill:#FFFFFF;" d="M247.992,216.52c-6.776-4.624-15.512-7.408-25.128-7.408c-21.336,0-38.616,13.736-38.616,30.704
	s17.28,30.704,38.616,30.704s38.616-13.736,38.616-30.704V146.32l80.296-12.648l17.76-2.8v21.016v49.752
	c-6.584-4.112-14.872-6.648-23.928-6.648c-21.336,0-38.616,13.736-38.616,30.704s17.28,30.704,38.616,30.704
	s38.616-13.736,38.616-30.704c0-1.136-0.128-2.344-0.256-3.416h0.256V165.8V70.288L271.992,90.952L248,95.8v120.72H247.992z"/>
<g>
</g>
<g>
</g>
<g>
</g>
<g>
</g>
<g>
</g>
<g>
</g>
<g>
</g>
<g>
</g>
<g>
</g>
<g>
</g>
<g>
</g>
<g>
</g>
<g>
</g>
<g>
</g>
<g>
</g>
</svg>
