<svg height="512" viewBox="0 0 512 512" width="512" xmlns="http://www.w3.org/2000/svg"><g><g><g><path d="m16 392h480a0 0 0 0 1 0 0v32a32 32 0 0 1 -32 32h-416a32 32 0 0 1 -32-32v-32a0 0 0 0 1 0 0z" fill="#e0e0e2"/><path d="m295 416h-79l-8-24h96z" fill="#57565c"/><path d="m296 152h120a32 32 0 0 1 32 32v208h-384v-208a32 32 0 0 1 32-32h120" fill="#2d2d30"/><path d="m296 176h128v192h-336v-192h128" fill="#3d9ae2"/></g><path d="m320 120h-32v128h-64v-128h-32l64-64z" fill="#d80027"/></g><g><path d="m496 384h-40v-200a40.04 40.04 0 0 0 -40-40h-120v-16h24a8 8 0 0 0 5.66-13.66l-64-64a8.015 8.015 0 0 0 -11.32 0l-64 64a8 8 0 0 0 5.66 13.66h24v16h-120a40.04 40.04 0 0 0 -40 40v200h-40a8 8 0 0 0 -8 8v32a40.04 40.04 0 0 0 40 40h416a40.04 40.04 0 0 0 40-40v-32a8 8 0 0 0 -8-8zm-284.69-272 44.69-44.69 44.69 44.69h-12.69a8 8 0 0 0 -8 8v120h-48v-120a8 8 0 0 0 -8-8zm12.69 144h64a8 8 0 0 0 8-8v-64h120v176h-320v-176h120v64a8 8 0 0 0 8 8zm-152-72a24.032 24.032 0 0 1 24-24h120v8h-128a8 8 0 0 0 -8 8v192a8 8 0 0 0 8 8h336a8 8 0 0 0 8-8v-192a8 8 0 0 0 -8-8h-128v-8h120a24.032 24.032 0 0 1 24 24v200h-368zm220.46 216-3 8h-67.69l-2.67-8zm195.54 24a24.032 24.032 0 0 1 -24 24h-416a24.032 24.032 0 0 1 -24-24v-24h178.23l6.18 18.53a8 8 0 0 0 7.59 5.47h79a8.005 8.005 0 0 0 7.49-5.19l7.05-18.81h178.46z"/><path d="m120 408h-80a8 8 0 0 0 0 16h80a8 8 0 0 0 0-16z"/><path d="m152 408h-8a8 8 0 0 0 0 16h8a8 8 0 0 0 0-16z"/><path d="m184 280a8 8 0 0 0 8 8h128a8 8 0 0 0 0-16h-128a8 8 0 0 0 -8 8z"/></g></g></svg>